<?xml version="1.0" encoding="utf-8"?>
<!-- Generator: Adobe Illustrator 26.0.3, SVG Export Plug-In . SVG Version: 6.00 Build 0)  -->
<svg version="1.1" id="Ebene_1" xmlns="http://www.w3.org/2000/svg" xmlns:xlink="http://www.w3.org/1999/xlink" x="0px" y="0px"
	 viewBox="0 0 283.4646 58.1102" style="enable-background:new 0 0 283.4646 58.1102;" xml:space="preserve">
<style type="text/css">
	.st0{clip-path:url(#SVGID_00000176738199065061230140000016326275187329785239_);}
	.st1{clip-path:url(#SVGID_00000044875548277969205470000017421009012086542742_);}
	.st2{clip-path:url(#SVGID_00000141422560082767178860000003363551847912968353_);}
	.st3{clip-path:url(#SVGID_00000098941317292586334320000002649293750803228347_);}
	.st4{clip-path:url(#SVGID_00000163034284549919727600000011294933536007366591_);}
	.st5{clip-path:url(#SVGID_00000011000982722935164930000010346083058872899235_);}
	.st6{clip-path:url(#SVGID_00000013167142756588962010000003113187135978068126_);}
	.st7{clip-path:url(#SVGID_00000050659677350271818890000014628248245110681742_);}
	.st8{clip-path:url(#SVGID_00000080905253842000080080000009421984242256202159_);}
	.st9{clip-path:url(#SVGID_00000149355141832036217430000013257916109599883924_);}
	.st10{clip-path:url(#SVGID_00000044896175695705097730000001778008121698298256_);}
	.st11{clip-path:url(#SVGID_00000131365201291529864220000008072922105646766522_);}
	.st12{clip-path:url(#SVGID_00000055681505520452594290000012103342330484304016_);}
	.st13{clip-path:url(#SVGID_00000163043412250766692480000003406645930304867498_);}
</style>
<g>
	<defs>
		<rect id="SVGID_00000128452506217013912920000016485990191179002037_" y="0.0001" width="283.465" height="58.11"/>
	</defs>
	<clipPath id="SVGID_00000140001577185633891180000005925419714831797896_">
		<use xlink:href="#SVGID_00000128452506217013912920000016485990191179002037_"  style="overflow:visible;"/>
	</clipPath>
	<path style="clip-path:url(#SVGID_00000140001577185633891180000005925419714831797896_);" d="M62.4324,39.6205h-7.372
		c0.155,12.663,9.312,18.49,21.418,18.49c9.933,0,19.478-4.895,19.478-16.237c0-11.731-9.467-13.751-18.702-16.392
		c-7.295-2.098-12.727-4.273-12.727-9.944c0-6.759,5.122-9.323,11.253-9.323c7.294,0,10.786,3.496,11.795,10.488h7.45
		c-0.854-11.109-8.148-16.703-19.245-16.703c-10.011,0-18.858,5.361-18.625,16.082c0.233,10.488,9.545,13.207,18.702,15.926
		c6.984,2.097,12.727,3.262,12.727,10.099c0,6.759-5.587,9.789-12.106,9.789C68.4074,51.8955,62.7424,47.9335,62.4324,39.6205"/>
	<path style="clip-path:url(#SVGID_00000140001577185633891180000005925419714831797896_);" d="M126.4321,25.5118v-17.88h11.408
		c6.441,0,10.321,2.215,10.321,8.43s-3.88,9.45-10.321,9.45H126.4321z M126.4321,50.4778v-18.753h13.581
		c6.13,0,10.476,3.371,10.476,9.275c0,5.982-4.346,9.478-10.476,9.478H126.4321z M119.0551,56.6928h19.716
		c11.796,0,19.09-5.36,19.09-15.693c0-7.225-4.733-11.498-11.097-12.585v-0.078c5.51-2.486,8.769-6.448,8.769-12.275
		c0-9.322-6.906-14.645-16.296-14.645h-20.182V56.6928z"/>
</g>
<polygon points="0,1.4173 0,56.6923 7.372,56.6923 7.372,31.7283 34.068,31.7283 34.068,56.6923 41.44,56.6923 41.44,25.5123 
	7.372,25.5123 7.372,1.4173 "/>
<rect x="41.44" y="1.4181" width="7.359" height="24.094"/>
<rect x="166.218" y="25.5121" width="7.359" height="31.181"/>
<rect x="173.577" y="1.4181" width="7.359" height="24.094"/>
<rect x="103.039" y="1.4181" width="7.359" height="24.094"/>
<g>
	<defs>
		<rect id="SVGID_00000023268086214206759740000015266267884471561147_" y="0.0001" width="283.465" height="58.11"/>
	</defs>
	<clipPath id="SVGID_00000054230731936047466320000016411728186061118593_">
		<use xlink:href="#SVGID_00000023268086214206759740000015266267884471561147_"  style="overflow:visible;"/>
	</clipPath>
	<path style="clip-path:url(#SVGID_00000054230731936047466320000016411728186061118593_);" d="M239.9377,53.0825h0.889
		c-0.1-1.14-0.989-1.679-2-1.679c-0.91,0-1.909,0.549-1.909,1.519c0,0.8,0.689,1.27,1.459,1.46l0.721,0.18
		c0.49,0.121,0.92,0.271,0.92,0.711c0,0.6-0.61,0.78-1.121,0.78c-0.7,0-1.11-0.26-1.23-0.92h-0.899
		c0.09,1.279,1.229,1.679,2.1,1.679c0.9,0,2.049-0.499,2.049-1.599c0-0.861-0.789-1.231-1.569-1.421l-0.681-0.17
		c-0.45-0.11-0.85-0.34-0.85-0.74c0-0.44,0.49-0.72,0.98-0.72C239.3177,52.1625,239.8777,52.4125,239.9377,53.0825
		 M234.9317,55.2435v-2.981h0.99v-0.739h-0.99v-1.61l-0.879,0.4v1.21h-0.77v0.739h0.77v3.041c0,0.8,0.45,1.389,1.449,1.389h0.45
		v-0.739h-0.36C235.1917,55.9535,234.9317,55.7035,234.9317,55.2435 M230.9847,51.5235h-0.899v5.169h0.899v-2.44
		c0-1.5,0.61-1.77,1.21-1.86c0.13-0.02,0.29-0.03,0.33-0.03v-0.859c-0.78,0-1.28,0.3-1.54,1.059V51.5235z M224.5847,53.8235
		l1.19-3.421h0.03l1.199,3.421H224.5847z M223.5147,56.6925l0.79-2.09h2.979l0.78,2.09h0.98l-2.66-7.139h-1.189l-2.66,7.139
		H223.5147z M214.9237,54.0925c0-1.12,0.58-1.93,1.641-1.93c1.12,0,1.64,0.92,1.64,1.93c0,1.021-0.52,1.951-1.64,1.951
		C215.4737,56.0435,214.9237,55.2135,214.9237,54.0925 M216.3847,51.4035c-1.461,0-2.36,1.089-2.36,2.689
		c0,1.601,0.899,2.72,2.36,2.72c0.94,0,1.59-0.619,1.78-1.149h0.01v1.029h0.899v-7.139h-0.899v3.019h-0.01
		C217.9747,52.0325,217.3247,51.4035,216.3847,51.4035 M208.5267,56.6925h0.899v-2.54c0-1.35,0.67-1.99,1.431-1.99
		c0.7,0,1.09,0.36,1.09,1.27v3.26h0.899v-3.35c0-1.05-0.509-1.939-1.869-1.939c-0.801,0-1.281,0.499-1.551,1.089v-0.969h-0.899
		V56.6925z M203.5127,55.2835c0-0.52,0.45-0.741,1.201-0.871c1.12-0.2,1.34-0.5,1.44-0.84l0.01,0.72c0,1.281-0.78,1.791-1.57,1.791
		C203.9627,56.0835,203.5127,55.7735,203.5127,55.2835 M202.8737,53.0825h0.899c0.12-0.56,0.591-0.93,1.221-0.93
		c0.74,0,1.15,0.31,1.15,0.74c0,0.43-0.22,0.62-0.9,0.74c-0.78,0.14-2.62,0.19-2.62,1.651c0,0.74,0.57,1.529,1.81,1.529
		c1.15,0,1.58-0.669,1.7-1.069h0.01v0.199c0,0.29,0,0.5,0.02,0.75h0.959c-0.04-0.25-0.08-0.66-0.08-1.05v-2.22
		c0-0.8-0.18-2.029-2.079-2.029C203.6127,51.3935,202.9837,52.3325,202.8737,53.0825"/>
	<path style="clip-path:url(#SVGID_00000054230731936047466320000016411728186061118593_);" d="M282.4859,42.2823h0.889
		c-0.1-1.14-0.989-1.679-1.999-1.679c-0.911,0-1.91,0.549-1.91,1.519c0,0.801,0.689,1.271,1.459,1.461l0.721,0.18
		c0.49,0.12,0.92,0.27,0.92,0.71c0,0.6-0.61,0.78-1.12,0.78c-0.701,0-1.111-0.26-1.231-0.92h-0.899c0.09,1.28,1.229,1.679,2.1,1.679
		c0.9,0,2.049-0.499,2.049-1.599c0-0.86-0.789-1.23-1.569-1.42l-0.68-0.171c-0.451-0.11-0.851-0.34-0.851-0.74
		c0-0.44,0.49-0.72,0.981-0.72C281.8659,41.3623,282.4259,41.6123,282.4859,42.2823 M274.4659,42.8333
		c0.12-0.891,0.711-1.491,1.641-1.491c0.92,0,1.42,0.59,1.5,1.491H274.4659z M278.4359,44.3533h-0.879
		c-0.18,0.64-0.76,0.91-1.45,0.91c-0.92,0-1.581-0.63-1.651-1.711h4.06v-0.16c-0.02-1.329-0.589-2.789-2.409-2.789
		c-1.461,0-2.519,1.119-2.519,2.679c0,1.621,1.008,2.73,2.539,2.73C277.2769,46.0123,278.1469,45.4533,278.4359,44.3533
		 M272.7959,44.3133h-0.91c-0.23,0.61-0.66,0.95-1.41,0.95c-1.05,0-1.72-0.85-1.72-1.95c0-1.111,0.67-1.971,1.72-1.971
		c0.84,0,1.19,0.46,1.38,0.93h0.9c-0.22-0.94-0.93-1.669-2.25-1.669c-1.61,0-2.648,1.149-2.648,2.71c0,1.56,1.038,2.699,2.648,2.699
		C271.7559,46.0123,272.5059,45.3933,272.7959,44.3133 M262.4769,45.8923h0.898v-2.54c0-1.35,0.671-1.99,1.431-1.99
		c0.7,0,1.091,0.36,1.091,1.27v3.26h0.898v-3.35c0-1.05-0.509-1.939-1.869-1.939c-0.8,0-1.281,0.499-1.551,1.089v-0.969h-0.898
		V45.8923z M257.2899,42.8333c0.12-0.891,0.711-1.491,1.641-1.491c0.92,0,1.421,0.59,1.501,1.491H257.2899z M261.2609,44.3533
		h-0.879c-0.18,0.64-0.761,0.91-1.451,0.91c-0.92,0-1.581-0.63-1.651-1.711h4.06v-0.16c-0.02-1.329-0.589-2.789-2.409-2.789
		c-1.461,0-2.519,1.119-2.519,2.679c0,1.621,1.008,2.73,2.539,2.73C260.1019,46.0123,260.9709,45.4533,261.2609,44.3533
		 M254.3779,45.8923h0.899v-5.169h-0.899V45.8923z M255.3559,38.7533h-0.959v0.999h0.959V38.7533z M253.2559,44.3133h-0.91
		c-0.23,0.61-0.66,0.95-1.41,0.95c-1.05,0-1.72-0.85-1.72-1.95c0-1.111,0.67-1.971,1.72-1.971c0.84,0,1.19,0.46,1.38,0.93h0.9
		c-0.22-0.94-0.93-1.669-2.25-1.669c-1.61,0-2.648,1.149-2.648,2.71c0,1.56,1.038,2.699,2.648,2.699
		C252.2159,46.0123,252.9659,45.3933,253.2559,44.3133 M243.2599,43.6833h-0.949c0.02,1.63,1.199,2.379,2.759,2.379
		c1.281,0,2.51-0.629,2.51-2.089c0-1.51-1.219-1.77-2.41-2.11c-0.94-0.271-1.64-0.551-1.64-1.281c0-0.87,0.66-1.2,1.45-1.2
		c0.941,0,1.391,0.45,1.521,1.35h0.959c-0.11-1.43-1.049-2.149-2.48-2.149c-1.29,0-2.429,0.689-2.399,2.069
		c0.03,1.351,1.229,1.701,2.409,2.051c0.901,0.27,1.641,0.42,1.641,1.3c0,0.87-0.72,1.26-1.561,1.26
		C244.0299,45.2633,243.2999,44.7533,243.2599,43.6833 M233.8399,43.2933c0-1.121,0.58-1.931,1.64-1.931
		c1.121,0,1.641,0.92,1.641,1.931c0,1.02-0.52,1.95-1.641,1.95C234.3899,45.2433,233.8399,44.4133,233.8399,43.2933
		 M235.2999,40.6033c-1.46,0-2.359,1.089-2.359,2.69c0,1.6,0.899,2.719,2.359,2.719c0.941,0,1.591-0.619,1.781-1.149h0.01v1.029
		h0.899v-7.139h-0.899v3.019h-0.01C236.8909,41.2323,236.2409,40.6033,235.2999,40.6033 M227.9299,42.8333
		c0.12-0.891,0.71-1.491,1.64-1.491c0.921,0,1.421,0.59,1.501,1.491H227.9299z M231.8999,44.3533h-0.879
		c-0.18,0.64-0.76,0.91-1.451,0.91c-0.92,0-1.58-0.63-1.65-1.711h4.06v-0.16c-0.02-1.329-0.589-2.789-2.41-2.789
		c-1.46,0-2.519,1.119-2.519,2.679c0,1.621,1.009,2.73,2.539,2.73C230.7409,46.0123,231.6099,45.4533,231.8999,44.3533
		 M224.9169,45.8923h0.899v-5.169h-0.899V45.8923z M225.8959,38.7533h-0.959v0.999h0.959V38.7533z M222.5239,45.8923h0.899v-7.139
		h-0.899V45.8923z M217.1129,43.2933c0-1.011,0.52-1.931,1.641-1.931c1.06,0,1.64,0.81,1.64,1.931c0,1.12-0.55,1.95-1.64,1.95
		C217.6329,45.2433,217.1129,44.3133,217.1129,43.2933 M218.9339,40.6033c-0.941,0-1.591,0.629-1.781,1.169h-0.01v-1.049h-0.899
		v7.169h0.899v-3.029h0.01c0.19,0.53,0.84,1.149,1.781,1.149c1.46,0,2.359-1.119,2.359-2.719
		C221.2929,41.6923,220.3939,40.6033,218.9339,40.6033 M210.8439,43.2933c0-1.011,0.52-1.931,1.641-1.931
		c1.06,0,1.64,0.81,1.64,1.931c0,1.12-0.55,1.95-1.64,1.95C211.3639,45.2433,210.8439,44.3133,210.8439,43.2933 M212.6649,40.6033
		c-0.941,0-1.591,0.629-1.781,1.169h-0.01v-1.049h-0.899v7.169h0.899v-3.029h0.01c0.19,0.53,0.84,1.149,1.781,1.149
		c1.46,0,2.359-1.119,2.359-2.719C215.0239,41.6923,214.1249,40.6033,212.6649,40.6033 M204.4739,43.0233l1.19-3.421h0.03
		l1.199,3.421H204.4739z M203.4039,45.8923l0.79-2.09h2.979l0.78,2.09h0.98l-2.66-7.139h-1.189l-2.66,7.139H203.4039z"/>
	<path style="clip-path:url(#SVGID_00000054230731936047466320000016411728186061118593_);" d="M257.5478,29.3425v0.581h-0.71v0.739
		h0.71v4.43h0.879v-4.43h0.87v-0.739h-0.87v-0.541c0-0.54,0.27-0.67,0.66-0.67h0.33v-0.759h-0.56
		C257.9378,27.9535,257.5478,28.6225,257.5478,29.3425 M251.8588,32.5125c0-1.07,0.681-1.95,1.691-1.95
		c1.01,0,1.691,0.88,1.691,1.95c0,1.061-0.681,1.941-1.691,1.941C252.5398,34.4535,251.8588,33.5735,251.8588,32.5125
		 M253.5498,35.2125c1.571,0,2.589-1.179,2.589-2.7c0-1.52-1.018-2.709-2.589-2.709s-2.589,1.189-2.589,2.709
		C250.9608,34.0335,251.9788,35.2125,253.5498,35.2125 M243.8398,29.9235h-0.959c0.72,1.77,1.449,3.54,2.169,5.31l-0.18,0.45
		c-0.15,0.37-0.23,0.65-0.73,0.65h-0.569v0.759h0.699c0.7,0,1.08-0.38,1.31-0.999l2.339-6.17h-0.959l-1.47,4.28h-0.01
		L243.8398,29.9235z M241.1018,33.6435v-2.981h0.99v-0.739h-0.99v-1.61l-0.879,0.4v1.21h-0.77v0.739h0.77v3.041
		c0,0.8,0.449,1.389,1.449,1.389h0.45v-0.739h-0.36C241.3618,34.3535,241.1018,34.1035,241.1018,33.6435 M237.4528,35.0925h0.899
		v-5.169h-0.899V35.0925z M238.4318,27.9535h-0.959v0.999h0.959V27.9535z M235.3128,31.4825h0.889c-0.1-1.14-0.989-1.679-2-1.679
		c-0.91,0-1.909,0.549-1.909,1.519c0,0.8,0.689,1.27,1.459,1.46l0.72,0.181c0.491,0.12,0.921,0.27,0.921,0.71
		c0,0.6-0.61,0.78-1.121,0.78c-0.7,0-1.11-0.26-1.23-0.92h-0.899c0.09,1.279,1.229,1.679,2.099,1.679c0.901,0,2.05-0.499,2.05-1.599
		c0-0.861-0.789-1.231-1.569-1.421l-0.681-0.17c-0.45-0.11-0.85-0.34-0.85-0.74c0-0.44,0.49-0.72,0.98-0.72
		C234.6928,30.5625,235.2528,30.8125,235.3128,31.4825 M229.9218,29.9235h-0.899v5.169h0.899v-2.44c0-1.5,0.61-1.77,1.21-1.86
		c0.13-0.02,0.29-0.03,0.33-0.03v-0.859c-0.78,0-1.28,0.3-1.54,1.059V29.9235z M223.7368,32.0335c0.12-0.891,0.71-1.491,1.64-1.491
		c0.921,0,1.421,0.59,1.501,1.491H223.7368z M227.7068,33.5525h-0.879c-0.18,0.641-0.76,0.911-1.451,0.911
		c-0.92,0-1.58-0.63-1.65-1.711h4.06v-0.16c-0.02-1.33-0.589-2.789-2.41-2.789c-1.46,0-2.519,1.119-2.519,2.679
		c0,1.621,1.009,2.73,2.539,2.73C226.5478,35.2125,227.4168,34.6535,227.7068,33.5525 M218.4988,29.9235h-0.98
		c0.65,1.72,1.29,3.449,1.94,5.169h0.989c0.65-1.72,1.29-3.449,1.94-5.169h-0.98l-1.439,4.26h-0.01
		C219.4688,32.7625,218.9888,31.3435,218.4988,29.9235 M215.6288,35.0925h0.899v-5.169h-0.899V35.0925z M216.6078,27.9535h-0.959
		v0.999h0.959V27.9535z M209.8338,35.0925h0.899v-2.54c0-1.35,0.67-1.99,1.431-1.99c0.7,0,1.09,0.36,1.09,1.27v3.26h0.899v-3.35
		c0-1.05-0.509-1.939-1.869-1.939c-0.801,0-1.281,0.499-1.551,1.089v-0.969h-0.899V35.0925z M208.3428,32.5535v-4.6h-0.949v4.6
		c0,1.03-0.54,1.91-1.74,1.91c-1.201,0-1.741-0.88-1.741-1.91v-4.6h-0.949v4.6c0,1.5,0.849,2.709,2.69,2.709
		C207.4938,35.2625,208.3428,34.0535,208.3428,32.5535"/>
	<path style="clip-path:url(#SVGID_00000054230731936047466320000016411728186061118593_);" d="M237.5281,16.7574
		c0-1.121,0.58-1.931,1.641-1.931c1.12,0,1.64,0.92,1.64,1.931c0,1.02-0.52,1.95-1.64,1.95
		C238.0781,18.7074,237.5281,17.8774,237.5281,16.7574 M238.9891,14.0674c-1.461,0-2.36,1.089-2.36,2.69
		c0,1.6,0.899,2.719,2.36,2.719c0.94,0,1.59-0.619,1.78-1.149h0.01v1.029h0.899v-7.139h-0.899v3.019h-0.01
		C240.5791,14.6964,239.9291,14.0674,238.9891,14.0674 M234.5001,19.3564h0.899v-7.139h-0.899V19.3564z M229.2041,16.2974
		c0.12-0.891,0.711-1.491,1.641-1.491c0.92,0,1.421,0.59,1.501,1.491H229.2041z M233.1741,17.8174h-0.878
		c-0.181,0.64-0.761,0.91-1.451,0.91c-0.92,0-1.581-0.63-1.651-1.711h4.06v-0.16c-0.02-1.329-0.589-2.789-2.409-2.789
		c-1.461,0-2.519,1.119-2.519,2.679c0,1.621,1.008,2.73,2.539,2.73C232.0151,19.4764,232.8851,18.9174,233.1741,17.8174
		 M225.9211,13.6074v0.58h-0.71v0.739h0.71v4.43h0.878v-4.43h0.87v-0.739h-0.87v-0.54c0-0.541,0.27-0.671,0.66-0.671h0.33v-0.759
		h-0.56C226.3101,12.2174,225.9211,12.8864,225.9211,13.6074 M220.4111,16.2974c0.12-0.891,0.711-1.491,1.641-1.491
		c0.92,0,1.421,0.59,1.501,1.491H220.4111z M224.3821,17.8174h-0.879c-0.18,0.64-0.761,0.91-1.451,0.91
		c-0.92,0-1.581-0.63-1.651-1.711h4.06v-0.16c-0.02-1.329-0.589-2.789-2.409-2.789c-1.461,0-2.519,1.119-2.519,2.679
		c0,1.621,1.008,2.73,2.539,2.73C223.2231,19.4764,224.0921,18.9174,224.3821,17.8174 M217.5331,19.3564h0.899v-7.139h-0.899
		V19.3564z M212.2371,16.2974c0.12-0.891,0.71-1.491,1.64-1.491c0.921,0,1.421,0.59,1.501,1.491H212.2371z M216.2071,17.8174h-0.879
		c-0.18,0.64-0.76,0.91-1.451,0.91c-0.92,0-1.58-0.63-1.65-1.711h4.06v-0.16c-0.02-1.329-0.59-2.789-2.41-2.789
		c-1.46,0-2.519,1.119-2.519,2.679c0,1.621,1.009,2.73,2.539,2.73C215.0481,19.4764,215.9171,18.9174,216.2071,17.8174
		 M209.2241,19.3564h0.899v-5.169h-0.899V19.3564z M210.2031,12.2174h-0.959v0.999h0.959V12.2174z M203.9531,15.3374v-2.321h1.47
		c0.831,0,1.331,0.31,1.331,1.111c0,0.8-0.5,1.21-1.331,1.21H203.9531z M203.9531,18.5574v-2.421h1.751c0.79,0,1.35,0.44,1.35,1.201
		c0,0.77-0.56,1.22-1.351,1.22H203.9531z M203.0041,19.3564h2.539c1.521,0,2.46-0.689,2.46-2.019c0-0.931-0.609-1.481-1.429-1.62
		v-0.01c0.709-0.32,1.129-0.83,1.129-1.58c0-1.201-0.889-1.91-2.1-1.91h-2.599V19.3564z"/>
	<path style="clip-path:url(#SVGID_00000054230731936047466320000016411728186061118593_);" d="M252.9251,5.4977
		c0.12-0.891,0.71-1.491,1.641-1.491c0.92,0,1.42,0.59,1.5,1.491H252.9251z M256.8951,7.0167h-0.879
		c-0.18,0.641-0.76,0.911-1.45,0.911c-0.921,0-1.581-0.63-1.651-1.711h4.06v-0.16c-0.02-1.33-0.589-2.789-2.409-2.789
		c-1.461,0-2.52,1.119-2.52,2.679c0,1.621,1.009,2.73,2.54,2.73C255.7361,8.6767,256.6061,8.1177,256.8951,7.0167 M249.9321,8.5567
		h0.899v-7.139h-0.899V8.5567z M244.1091,6.7377c0,1.05,0.509,1.939,1.869,1.939c0.8,0,1.28-0.499,1.551-1.089v0.969h0.898v-5.169
		h-0.898v2.539c0,1.351-0.671,1.991-1.431,1.991c-0.701,0-1.091-0.36-1.091-1.27v-3.26h-0.898V6.7377z M238.3651,8.5567h0.898v-2.54
		c0-1.35,0.671-1.99,1.431-1.99c0.7,0,1.091,0.36,1.091,1.27v3.26h0.898v-3.35c0-1.05-0.509-1.939-1.869-1.939
		c-0.8,0-1.281,0.499-1.551,1.089v-2.939h-0.898V8.5567z M237.1681,6.9777h-0.91c-0.23,0.61-0.66,0.95-1.41,0.95
		c-1.05,0-1.72-0.85-1.72-1.951c0-1.11,0.67-1.97,1.72-1.97c0.84,0,1.19,0.46,1.38,0.93h0.9c-0.22-0.94-0.93-1.669-2.25-1.669
		c-1.61,0-2.648,1.149-2.648,2.709c0,1.561,1.038,2.7,2.648,2.7C236.1281,8.6767,236.8781,8.0577,237.1681,6.9777 M230.3771,4.9467
		h0.889c-0.1-1.14-0.989-1.679-2-1.679c-0.91,0-1.909,0.549-1.909,1.519c0,0.8,0.689,1.27,1.459,1.46l0.72,0.181
		c0.49,0.12,0.921,0.27,0.921,0.71c0,0.6-0.611,0.78-1.121,0.78c-0.7,0-1.11-0.26-1.231-0.92h-0.898
		c0.09,1.279,1.229,1.679,2.099,1.679c0.901,0,2.049-0.499,2.049-1.599c0-0.861-0.788-1.231-1.569-1.421l-0.68-0.17
		c-0.45-0.11-0.851-0.34-0.851-0.74c0-0.44,0.491-0.72,0.981-0.72C229.7561,4.0267,230.3171,4.2767,230.3771,4.9467
		 M221.7441,8.5567h0.898v-2.54c0-1.35,0.671-1.99,1.431-1.99c0.701,0,1.091,0.36,1.091,1.27v3.26h0.898v-3.35
		c0-1.05-0.509-1.939-1.869-1.939c-0.8,0-1.28,0.499-1.551,1.089v-2.939h-0.898V8.5567z M220.5481,6.9777h-0.911
		c-0.229,0.61-0.659,0.95-1.409,0.95c-1.05,0-1.72-0.85-1.72-1.951c0-1.11,0.67-1.97,1.72-1.97c0.84,0,1.189,0.46,1.38,0.93h0.9
		c-0.22-0.94-0.93-1.669-2.25-1.669c-1.61,0-2.649,1.149-2.649,2.709c0,1.561,1.039,2.7,2.649,2.7
		C219.5081,8.6767,220.2581,8.0577,220.5481,6.9777 M210.4111,5.9767c0-1.07,0.68-1.95,1.69-1.95c1.011,0,1.691,0.88,1.691,1.95
		c0,1.061-0.68,1.941-1.691,1.941C211.0911,7.9177,210.4111,7.0377,210.4111,5.9767 M212.1011,8.6767c1.571,0,2.59-1.179,2.59-2.7
		c0-1.52-1.019-2.709-2.59-2.709c-1.57,0-2.589,1.189-2.589,2.709C209.5121,7.4977,210.5311,8.6767,212.1011,8.6767
		 M207.3941,1.4177v3.16h-3.441v-3.16h-0.949v7.139h0.949v-3.18h3.441v3.18h0.949v-7.139H207.3941z"/>
</g>
</svg>
